<?xml version="1.0" encoding="utf-8"?>
<!-- Generator: Adobe Illustrator 22.0.0, SVG Export Plug-In . SVG Version: 6.00 Build 0)  -->
<svg version="1.1" id="Слой_1" xmlns="http://www.w3.org/2000/svg" xmlns:xlink="http://www.w3.org/1999/xlink" x="0px" y="0px"
	 viewBox="0 0 595.3 595.3" style="enable-background:new 0 0 595.3 595.3;" xml:space="preserve">
<style type="text/css">
	.st0{fill:#003F72;}
</style>
<g id="Слой_x0020_1">
	<g id="_2633661420288">
		<path class="st0" d="M297.6,14.2c156.6,0,283.5,126.9,283.5,283.5S454.2,581.1,297.6,581.1S14.2,454.2,14.2,297.6
			S141.1,14.2,297.6,14.2z M492.1,103.2c-49.8-49.8-118.5-80.5-194.4-80.5S153,53.4,103.2,103.2C53.4,153,22.7,221.7,22.7,297.6
			s30.8,144.7,80.5,194.4c49.8,49.8,118.5,80.5,194.4,80.5s144.7-30.8,194.4-80.5c49.8-49.8,80.5-118.5,80.5-194.4
			S541.8,153,492.1,103.2z"/>
		<path class="st0" d="M251.6,453.2L88.9,157.9c-26.8,40-42.4,88-42.4,139.7c0,138.7,112.4,251.2,251.2,251.2
			c138.7,0,251.2-112.4,251.2-251.2c0-51.7-15.6-99.8-42.4-139.7L343.7,453.2l-46.1-99.1L251.6,453.2L251.6,453.2z"/>
		<polygon class="st0" points="342.3,403.7 297.6,314 253,403.7 297.6,46.5 		"/>
	</g>
</g>
</svg>
